# xmcd CD database file
#
# Track frame offsets:
#	183
#	46660
#	72295
#	101433
#	129183
#	166190
#	195108
#	250875
#	286588
#
# Disc length: 4203 seconds
#
# Revision: 0
# Processed by: cddbd v1.5PL3 Copyright (c) Steve Scherf et al.
# Submitted via: CDex 1.51
#
DISCID=65106909
DTITLE=Chico Hamilton - Trio!
DYEAR=1993
DGENRE=Jazz
TTITLE0=A Little After Twelve
TTITLE1=Around the Corner
TTITLE2=Sound Rising
TTITLE3=29
TTITLE4=La Vie d'Amour
TTITLE5=C and C
TTITLE6=10th Vision
TTITLE7=Song For Helen (Elsa's Theme)
TTITLE8=See Saw
EXTD=YEAR: 1993
EXTT0=
EXTT1=
EXTT2=
EXTT3=
EXTT4=
EXTT5=
EXTT6=
EXTT7=
EXTT8=
PLAYORDER=
